<svg xmlns="http://www.w3.org/2000/svg" viewBox="0 0 100 100" fill="currentColor">
 <path d="m28 80.141v-5.8711c0.003906-1.7422 1.418-3.1523 3.1602-3.1602h37.699c1.7344 0.015625 3.1367 1.4258 3.1406 3.1602v5.8711c-0.003906 1.7422-1.418 3.1523-3.1602 3.1602h-37.691c-1.7383-0.011719-3.1445-1.4219-3.1484-3.1602zm27.801-38.852v-5.8203h-11.59v5.8203c-0.03125 10.254-3.832 20.141-10.68 27.77h32.938c-6.8477-7.6289-10.648-17.516-10.68-27.77zm-12.621-14.188c-1.7461 0-3.1602 1.4141-3.1602 3.1602 0 1.7422 1.4141 3.1602 3.1602 3.1602h13.641c1.7461 0 3.1602-1.418 3.1602-3.1602 0-1.7461-1.4141-3.1602-3.1602-3.1602zm0-2.0508h13.641c0.14844 0 0.30078 0 0.46094 0.050781 2.7344-2.9062 3.4805-7.1602 1.8984-10.824-1.582-3.6602-5.1914-6.0312-9.1797-6.0312s-7.5977 2.3711-9.1797 6.0312c-1.582 3.6641-0.83594 7.918 1.8984 10.824 0.15234-0.011718 0.28125-0.050781 0.46094-0.050781zm29.82 60.301h-46c-0.86719-0.050781-1.7188 0.26172-2.3477 0.85547-0.63281 0.59766-0.98828 1.4297-0.98828 2.2969 0 0.87109 0.35547 1.6992 0.98828 2.2969 0.62891 0.59766 1.4805 0.90625 2.3477 0.85938h46c0.86719 0.046875 1.7188-0.26172 2.3477-0.85938 0.63281-0.59766 0.98828-1.4258 0.98828-2.2969 0-0.86719-0.35547-1.6992-0.98828-2.2969-0.62891-0.59375-1.4805-0.90625-2.3477-0.85547z"/>
</svg>
