<svg xmlns="http://www.w3.org/2000/svg" viewBox="-5.0 -10.0 110.0 135.0">
  <path d="M28.974,18.817c2.992-2.992,7.537,1.553,4.545,4.545l-7.892,7.891h34.25c22.407,0,34.093,27.318,17.979,43.433c-4.611,4.612-10.976,7.474-17.979,7.474H28.013c-4.232,0-4.232-6.428,0-6.428h31.865c5.228,0,9.984-2.142,13.433-5.591c12.073-12.075,3.268-32.46-13.433-32.46h-34.25l7.892,7.892c2.992,2.992-1.553,7.537-4.545,4.545L15.538,36.681c-1.181-1.229-1.194-3.216,0.058-4.486L28.974,18.817z" fill-rule="evenodd" clip-rule="evenodd"/>
</svg>
