<svg xmlns="http://www.w3.org/2000/svg" viewBox="0 0 100 100" fill="currentColor">
 <path d="m72 81.738c0.65625-0.85938 1.0078-1.9141 1-3v-5.6016 0.003906c-0.027344-2.5469-1.9648-4.668-4.5-4.9219-7.0117-7.043-10.965-16.57-11-26.508v-5.6602c2.0273-0.39844 3.5938-2.0117 3.9297-4.0508 0.33203-2.0352-0.63672-4.0664-2.4297-5.0898 2.7383-3.4453 3.2617-8.1484 1.3516-12.113-1.9102-3.9609-5.9219-6.4805-10.32-6.4805s-8.4102 2.5195-10.324 6.4805c-1.9102 3.9648-1.3867 8.668 1.3516 12.113-1.793 1.0234-2.7617 3.0547-2.4258 5.0898 0.33203 2.0391 1.8984 3.6523 3.9258 4.0508v5.6484c-0.035156 9.9414-3.9883 19.465-11 26.512-2.5312 0.25391-4.4688 2.3711-4.5 4.918v5.6016c-0.003906 1.082 0.34766 2.1367 1 3-1.418-0.16797-2.8398 0.27734-3.9102 1.2266-1.0664 0.94922-1.6797 2.3086-1.6797 3.7383 0 1.4297 0.61328 2.7891 1.6797 3.7383 1.0703 0.94922 2.4922 1.3945 3.9102 1.2266h43.941c1.418 0.16797 2.8438-0.27734 3.9102-1.2266 1.0703-0.94922 1.6797-2.3086 1.6797-3.7383 0-1.4297-0.60938-2.7891-1.6797-3.7383-1.0664-0.94922-2.4922-1.3945-3.9102-1.2266zm-31.461-62c-0.007812-2.5195 1-4.9375 2.7891-6.707 3.7031-3.4805 9.4883-3.4336 13.129 0.10938 3.6445 3.5391 3.8555 9.3203 0.48438 13.121h-0.44141-13c-0.14844 0.003906-0.29297 0.023437-0.44141 0.046875-1.6641-1.7617-2.582-4.1016-2.5703-6.5273zm0 11.398v0.003906c0-1.6562 1.3438-3 3-3h13c1.6562 0 3 1.3438 3 3s-1.3438 3-3 3h-13c-0.79687 0.011719-1.5664-0.29297-2.1367-0.84766-0.57422-0.55469-0.90234-1.3164-0.91406-2.1133zm4 10.52v-5.5078h11v5.5508c0.027344 9.7734 3.6406 19.191 10.16 26.473h-31.398c6.5234-7.2773 10.148-16.699 10.18-26.473zm-15.539 31.473c0-1.6562 1.3438-3 3-3h36c1.6562 0 3 1.3438 3 3v5.6016c0 1.6562-1.3438 3-3 3h-36c-1.6562 0-3-1.3438-3-3zm43 16.582h-43.949c-1.6562 0-3-1.3438-3-3s1.3438-3 3-3h43.949c1.6562 0 3 1.3438 3 3s-1.3438 3-3 3z"/>
</svg>
